# xmcd
#
# Track frame offsets: 
#        150
#        17101
#        33001
#        52352
#        70362
#        85313
#        103989
#        121840
#
# Disc length: 1868 seconds
#
# Revision: 0
# Processed by: cddbd v1.5.2PL0 Copyright (c) Steve Scherf et al.
# Submitted via: ExactAudioCopyFreeDBPlugin 1.0
#
DISCID=6c074a08
DTITLE=Shyhrete Behluli - Shtëpi E Vjetër
DYEAR=2014
DGENRE=Folk
TTITLE0=Bandilli I Qarshisë
TTITLE1=Dashnija Si Deka
TTITLE2=Bijat N'dasëm
TTITLE3=Shtepi E Vjeter
TTITLE4=Moj qershi
TTITLE5=Dritë e Diell të ka Nana
TTITLE6=Sa Mas Dore Më Ke Lanë
TTITLE7=Qun me pare
EXTD=
EXTT0=
EXTT1=
EXTT2=
EXTT3=
EXTT4=
EXTT5=
EXTT6=
EXTT7=
PLAYORDER=
